<?xml version="1.0" encoding="UTF-8"?>
<svg id="Layer_1" data-name="Layer 1" xmlns="http://www.w3.org/2000/svg" viewBox="0 0 900 150">
  <defs>
    <style>
      .cls-1 {
        fill: #56c2b6;
      }
    </style>
  </defs>
  <g>
    <path d="M196.68,55.92h8.58v40.18h23.21v7.9h-31.8v-48.08Z"/>
    <path d="M247.64,97.06c3.48,0,6.07-1.24,7.76-3.71h9c-1.14,3.48-3.17,6.23-6.08,8.24-2.91,2.02-6.45,3.02-10.61,3.02-2.66,0-5.08-.42-7.28-1.27-2.2-.85-4.08-2.05-5.63-3.61-1.56-1.56-2.76-3.43-3.61-5.63-.85-2.2-1.27-4.62-1.27-7.28s.42-5.07,1.27-7.25c.85-2.17,2.05-4.03,3.61-5.56,1.56-1.53,3.43-2.72,5.63-3.57,2.2-.85,4.62-1.27,7.28-1.27s5.07.42,7.25,1.27c2.17.85,4.04,2.04,5.6,3.57,1.56,1.53,2.76,3.39,3.61,5.56.85,2.18,1.27,4.59,1.27,7.25,0,.5-.01.97-.03,1.41-.02.44-.06.88-.1,1.34h-26.85c.46,2.38,1.49,4.22,3.09,5.53,1.6,1.3,3.64,1.96,6.11,1.96ZM256.29,82.01c-.73-1.69-1.84-3-3.33-3.92-1.49-.92-3.26-1.37-5.32-1.37s-3.82.46-5.29,1.37c-1.47.92-2.56,2.22-3.3,3.92h17.24Z"/>
    <path d="M286.03,97.06c3.48,0,6.07-1.24,7.76-3.71h9c-1.14,3.48-3.17,6.23-6.08,8.24-2.91,2.02-6.44,3.02-10.61,3.02-2.66,0-5.08-.42-7.28-1.27-2.2-.85-4.08-2.05-5.63-3.61-1.56-1.56-2.76-3.43-3.61-5.63-.85-2.2-1.27-4.62-1.27-7.28s.42-5.07,1.27-7.25c.85-2.17,2.05-4.03,3.61-5.56,1.56-1.53,3.43-2.72,5.63-3.57,2.2-.85,4.62-1.27,7.28-1.27s5.07.42,7.25,1.27c2.17.85,4.04,2.04,5.6,3.57,1.56,1.53,2.76,3.39,3.61,5.56.85,2.18,1.27,4.59,1.27,7.25,0,.5-.01.97-.03,1.41-.02.44-.06.88-.1,1.34h-26.85c.46,2.38,1.49,4.22,3.09,5.53,1.6,1.3,3.64,1.96,6.11,1.96ZM294.68,82.01c-.73-1.69-1.84-3-3.33-3.92-1.49-.92-3.26-1.37-5.32-1.37s-3.82.46-5.29,1.37c-1.47.92-2.56,2.22-3.3,3.92h17.24Z"/>
    <path d="M324.15,55.92h23.08c1.97,0,3.74.31,5.32.93,1.58.62,2.92,1.5,4.02,2.64,1.1,1.14,1.95,2.48,2.54,4.02.59,1.53.89,3.24.89,5.12,0,2.34-.45,4.25-1.34,5.74-.89,1.49-2.07,2.62-3.54,3.4,1.14.37,2.22.89,3.23,1.58,1.01.69,1.89,1.53,2.64,2.54.76,1.01,1.35,2.18,1.79,3.5.43,1.33.65,2.84.65,4.53,0,2.06-.33,3.95-1,5.67-.66,1.72-1.61,3.21-2.85,4.46-1.24,1.26-2.74,2.23-4.5,2.92-1.76.69-3.74,1.03-5.94,1.03h-25v-48.08ZM346.13,74.46c1.6,0,2.88-.48,3.85-1.44.96-.96,1.44-2.24,1.44-3.85s-.48-2.95-1.44-3.92c-.96-.96-2.24-1.44-3.85-1.44h-13.39v10.65h13.39ZM348.05,96.09c2.06,0,3.71-.62,4.95-1.85,1.24-1.24,1.85-2.89,1.85-4.95s-.62-3.79-1.85-5.05c-1.24-1.26-2.88-1.89-4.95-1.89h-15.32v13.74h15.32Z"/>
    <path d="M382.32,104.61c-2.84,0-5.25-.47-7.25-1.41-1.99-.94-3.63-2.13-4.91-3.57-1.28-1.44-2.21-3.01-2.78-4.7-.57-1.69-.86-3.3-.86-4.81v-20.47h8.24v20.26c0,1.24.21,2.29.62,3.16.41.87.96,1.6,1.65,2.2.69.59,1.49,1.03,2.4,1.3.92.28,1.88.41,2.88.41s1.97-.14,2.88-.41c.92-.27,1.72-.71,2.4-1.3.69-.59,1.24-1.33,1.65-2.2.41-.87.62-1.92.62-3.16v-20.26h8.24v20.47c0,1.51-.29,3.11-.86,4.81-.57,1.69-1.5,3.26-2.78,4.7-1.28,1.44-2.92,2.63-4.91,3.57-1.99.94-4.41,1.41-7.25,1.41Z"/>
    <path d="M419.34,104.47c-5.68,0-9.97-1.38-12.88-4.16-2.91-2.77-4.36-6.81-4.36-12.12v-32.28h8.24v32.21c0,3.16.69,5.41,2.06,6.76,1.37,1.35,3.69,2.03,6.94,2.03v7.55ZM418.17,69.65v7.55h-13.12v-7.55h13.12Z"/>
    <path d="M438.43,104.47c-5.68,0-9.97-1.38-12.88-4.16-2.91-2.77-4.36-6.81-4.36-12.12v-32.28h8.24v32.21c0,3.16.69,5.41,2.06,6.76,1.37,1.35,3.69,2.03,6.94,2.03v7.55ZM437.26,69.65v7.55h-13.12v-7.55h13.12Z"/>
    <path d="M439.6,86.82c0-2.65.42-5.07,1.27-7.25.85-2.17,2.05-4.03,3.61-5.56,1.56-1.53,3.43-2.72,5.63-3.57,2.2-.85,4.62-1.27,7.28-1.27s5.07.42,7.25,1.27c2.17.85,4.04,2.04,5.6,3.57,1.56,1.53,2.76,3.39,3.61,5.56.85,2.18,1.27,4.59,1.27,7.25s-.42,5.08-1.27,7.28c-.85,2.2-2.05,4.08-3.61,5.63-1.56,1.56-3.42,2.76-5.6,3.61-2.18.85-4.59,1.27-7.25,1.27s-5.08-.42-7.28-1.27c-2.2-.85-4.08-2.05-5.63-3.61-1.56-1.56-2.76-3.43-3.61-5.63-.85-2.2-1.27-4.62-1.27-7.28ZM447.84,86.89c0,3.21.86,5.7,2.58,7.49s4.02,2.68,6.9,2.68,5.2-.89,6.94-2.68c1.74-1.79,2.61-4.28,2.61-7.49s-.87-5.7-2.61-7.49c-1.74-1.79-4.05-2.68-6.94-2.68s-5.19.89-6.9,2.68-2.58,4.28-2.58,7.49Z"/>
    <path d="M494.06,69.03c2.84,0,5.25.47,7.25,1.41,1.99.94,3.63,2.13,4.91,3.57,1.28,1.44,2.21,3.01,2.78,4.7.57,1.69.86,3.3.86,4.81v20.47h-8.24v-20.26c0-1.24-.21-2.29-.62-3.16-.41-.87-.96-1.6-1.65-2.2-.69-.59-1.49-1.03-2.4-1.3-.92-.27-1.88-.41-2.88-.41s-1.97.14-2.88.41c-.92.27-1.72.71-2.4,1.3-.69.6-1.24,1.33-1.65,2.2-.41.87-.62,1.92-.62,3.16v20.26h-8.24v-20.47c0-1.51.29-3.11.86-4.81.57-1.69,1.5-3.26,2.78-4.7,1.28-1.44,2.92-2.63,4.91-3.57,1.99-.94,4.41-1.41,7.25-1.41Z"/>
    <path d="M545.57,55.92h9l16.48,48.08h-9l-3.98-12.71h-16l-3.98,12.71h-9l16.48-48.08ZM555.53,83.39l-5.49-17.44-5.49,17.44h10.99Z"/>
    <path d="M580.39,78.92c0,.82.46,1.47,1.37,1.92.92.46,2.07.88,3.47,1.27,1.4.39,2.89.8,4.5,1.24,1.6.44,3.1,1.05,4.5,1.85,1.4.8,2.55,1.87,3.47,3.19.92,1.33,1.37,3.07,1.37,5.22,0,1.74-.33,3.29-1,4.64-.66,1.35-1.59,2.48-2.78,3.4-1.19.92-2.6,1.6-4.22,2.06-1.63.46-3.42.69-5.39.69-1.83,0-3.49-.18-4.98-.55-1.49-.37-2.82-.81-3.98-1.34-1.17-.53-2.18-1.1-3.02-1.72-.85-.62-1.55-1.16-2.09-1.61l4.4-6.46c1.47,1.37,3.06,2.4,4.77,3.09,1.72.69,3.42,1.03,5.12,1.03,1.42,0,2.6-.24,3.54-.72.94-.48,1.41-1.22,1.41-2.23s-.46-1.77-1.37-2.3c-.92-.53-2.07-.98-3.47-1.37-1.4-.39-2.9-.8-4.5-1.24-1.6-.43-3.1-1.04-4.5-1.82-1.4-.78-2.55-1.8-3.47-3.06-.92-1.26-1.37-2.94-1.37-5.05,0-3.16,1.11-5.61,3.33-7.35,2.22-1.74,5.28-2.61,9.17-2.61,1.69,0,3.25.16,4.67.48,1.42.32,2.71.72,3.88,1.2,1.17.48,2.23,1.03,3.19,1.65.96.62,1.81,1.25,2.54,1.89l-4.4,6.39c-1.83-1.51-3.61-2.56-5.32-3.16-1.72-.59-3.29-.89-4.7-.89-1.33,0-2.35.21-3.06.62-.71.41-1.06.96-1.06,1.65Z"/>
    <path d="M611.16,78.92c0,.82.46,1.47,1.37,1.92.92.46,2.07.88,3.47,1.27,1.4.39,2.89.8,4.5,1.24,1.6.44,3.1,1.05,4.5,1.85,1.4.8,2.55,1.87,3.47,3.19.92,1.33,1.37,3.07,1.37,5.22,0,1.74-.33,3.29-1,4.64-.66,1.35-1.59,2.48-2.78,3.4-1.19.92-2.6,1.6-4.22,2.06-1.63.46-3.42.69-5.39.69-1.83,0-3.49-.18-4.98-.55-1.49-.37-2.82-.81-3.98-1.34-1.17-.53-2.18-1.1-3.02-1.72-.85-.62-1.55-1.16-2.09-1.61l4.4-6.46c1.47,1.37,3.06,2.4,4.77,3.09,1.72.69,3.42,1.03,5.12,1.03,1.42,0,2.6-.24,3.54-.72.94-.48,1.41-1.22,1.41-2.23s-.46-1.77-1.37-2.3c-.92-.53-2.07-.98-3.47-1.37-1.4-.39-2.9-.8-4.5-1.24-1.6-.43-3.1-1.04-4.5-1.82-1.4-.78-2.55-1.8-3.47-3.06-.92-1.26-1.37-2.94-1.37-5.05,0-3.16,1.11-5.61,3.33-7.35,2.22-1.74,5.28-2.61,9.17-2.61,1.69,0,3.25.16,4.67.48,1.42.32,2.71.72,3.88,1.2,1.17.48,2.23,1.03,3.19,1.65.96.62,1.81,1.25,2.54,1.89l-4.4,6.39c-1.83-1.51-3.61-2.56-5.32-3.16-1.72-.59-3.29-.89-4.7-.89-1.33,0-2.35.21-3.06.62-.71.41-1.06.96-1.06,1.65Z"/>
    <path d="M633.68,86.82c0-2.65.42-5.07,1.27-7.25.85-2.17,2.05-4.03,3.61-5.56,1.56-1.53,3.43-2.72,5.63-3.57,2.2-.85,4.62-1.27,7.28-1.27s5.07.42,7.25,1.27c2.17.85,4.04,2.04,5.6,3.57,1.56,1.53,2.76,3.39,3.61,5.56.85,2.18,1.27,4.59,1.27,7.25s-.42,5.08-1.27,7.28c-.85,2.2-2.05,4.08-3.61,5.63-1.56,1.56-3.42,2.76-5.6,3.61-2.18.85-4.59,1.27-7.25,1.27s-5.08-.42-7.28-1.27c-2.2-.85-4.08-2.05-5.63-3.61-1.56-1.56-2.76-3.43-3.61-5.63-.85-2.2-1.27-4.62-1.27-7.28ZM641.93,86.89c0,3.21.86,5.7,2.58,7.49s4.02,2.68,6.9,2.68,5.2-.89,6.94-2.68c1.74-1.79,2.61-4.28,2.61-7.49s-.87-5.7-2.61-7.49c-1.74-1.79-4.05-2.68-6.94-2.68s-5.19.89-6.9,2.68-2.58,4.28-2.58,7.49Z"/>
    <path d="M681.96,86.89c0,3.21.86,5.7,2.58,7.49s4.02,2.68,6.9,2.68c2.11,0,3.9-.48,5.39-1.44,1.49-.96,2.6-2.31,3.33-4.05h8.59c-.92,4.03-2.88,7.21-5.91,9.55-3.02,2.33-6.8,3.5-11.33,3.5-2.66,0-5.08-.42-7.28-1.27-2.2-.85-4.08-2.05-5.63-3.61-1.56-1.56-2.76-3.43-3.61-5.63-.85-2.2-1.27-4.62-1.27-7.28s.42-5.07,1.27-7.25c.85-2.17,2.05-4.03,3.61-5.56,1.56-1.53,3.43-2.72,5.63-3.57,2.2-.85,4.62-1.27,7.28-1.27,4.49,0,8.24,1.16,11.26,3.47,3.02,2.31,4.99,5.44,5.91,9.37h-8.59c-.73-1.69-1.84-3-3.33-3.92-1.49-.92-3.26-1.37-5.32-1.37-2.88,0-5.19.89-6.9,2.68s-2.58,4.28-2.58,7.49Z"/>
    <path d="M713.15,59.69c0-1.24.43-2.3,1.3-3.19.87-.89,1.95-1.34,3.23-1.34s2.36.45,3.23,1.34c.87.89,1.3,1.96,1.3,3.19,0,1.33-.44,2.43-1.3,3.3-.87.87-1.95,1.3-3.23,1.3s-2.36-.43-3.23-1.3c-.87-.87-1.3-1.97-1.3-3.3ZM713.56,69.65h8.24v34.34h-8.24v-34.34Z"/>
    <path d="M743.98,69.17c2.65,0,5.08.42,7.28,1.27,2.2.85,4.07,2.05,5.63,3.61,1.56,1.56,2.76,3.43,3.61,5.63.85,2.2,1.27,4.62,1.27,7.28v17.03h-8.24v-3.3c-.82,1.05-2.09,1.97-3.81,2.75-1.72.78-3.84,1.17-6.35,1.17s-4.76-.42-6.87-1.27c-2.11-.85-3.91-2.05-5.43-3.61-1.51-1.56-2.69-3.43-3.54-5.63-.85-2.2-1.27-4.62-1.27-7.28s.42-5.07,1.27-7.25c.85-2.17,2.05-4.03,3.61-5.56,1.56-1.53,3.42-2.72,5.6-3.57,2.17-.85,4.59-1.27,7.25-1.27ZM753.53,86.89c0-3.2-.86-5.7-2.58-7.49s-4.02-2.68-6.9-2.68-5.2.89-6.94,2.68c-1.74,1.79-2.61,4.28-2.61,7.49s.87,5.7,2.61,7.49c1.74,1.79,4.05,2.68,6.94,2.68s5.19-.89,6.9-2.68,2.58-4.28,2.58-7.49Z"/>
    <path d="M784.23,104.47c-5.68,0-9.97-1.38-12.88-4.16-2.91-2.77-4.36-6.81-4.36-12.12v-32.28h8.24v32.21c0,3.16.69,5.41,2.06,6.76,1.37,1.35,3.69,2.03,6.94,2.03v7.55ZM783.06,69.65v7.55h-13.12v-7.55h13.12Z"/>
    <path d="M804.83,97.06c3.48,0,6.07-1.24,7.76-3.71h9c-1.14,3.48-3.17,6.23-6.08,8.24-2.91,2.02-6.44,3.02-10.61,3.02-2.66,0-5.08-.42-7.28-1.27-2.2-.85-4.08-2.05-5.63-3.61-1.56-1.56-2.76-3.43-3.61-5.63-.85-2.2-1.27-4.62-1.27-7.28s.42-5.07,1.27-7.25c.85-2.17,2.05-4.03,3.61-5.56,1.56-1.53,3.43-2.72,5.63-3.57,2.2-.85,4.62-1.27,7.28-1.27s5.07.42,7.25,1.27c2.17.85,4.04,2.04,5.6,3.57,1.56,1.53,2.76,3.39,3.61,5.56.85,2.18,1.27,4.59,1.27,7.25,0,.5-.01.97-.03,1.41-.02.44-.06.88-.1,1.34h-26.85c.46,2.38,1.49,4.22,3.09,5.53,1.6,1.3,3.64,1.96,6.11,1.96ZM813.49,82.01c-.73-1.69-1.84-3-3.33-3.92-1.49-.92-3.26-1.37-5.32-1.37s-3.82.46-5.29,1.37c-1.47.92-2.56,2.22-3.3,3.92h17.24Z"/>
    <path d="M834.91,78.92c0,.82.46,1.47,1.37,1.92.92.46,2.07.88,3.47,1.27,1.4.39,2.9.8,4.5,1.24,1.6.44,3.1,1.05,4.5,1.85,1.4.8,2.55,1.87,3.47,3.19.92,1.33,1.37,3.07,1.37,5.22,0,1.74-.33,3.29-1,4.64-.66,1.35-1.59,2.48-2.78,3.4-1.19.92-2.6,1.6-4.22,2.06-1.63.46-3.42.69-5.39.69-1.83,0-3.49-.18-4.98-.55-1.49-.37-2.82-.81-3.98-1.34-1.17-.53-2.18-1.1-3.02-1.72-.85-.62-1.55-1.16-2.09-1.61l4.4-6.46c1.46,1.37,3.06,2.4,4.77,3.09,1.72.69,3.42,1.03,5.12,1.03,1.42,0,2.6-.24,3.54-.72.94-.48,1.41-1.22,1.41-2.23s-.46-1.77-1.37-2.3c-.92-.53-2.07-.98-3.47-1.37-1.4-.39-2.9-.8-4.5-1.24-1.6-.43-3.1-1.04-4.5-1.82-1.4-.78-2.55-1.8-3.47-3.06-.92-1.26-1.37-2.94-1.37-5.05,0-3.16,1.11-5.61,3.33-7.35,2.22-1.74,5.28-2.61,9.17-2.61,1.69,0,3.25.16,4.67.48,1.42.32,2.71.72,3.88,1.2,1.17.48,2.23,1.03,3.19,1.65.96.62,1.81,1.25,2.54,1.89l-4.4,6.39c-1.83-1.51-3.61-2.56-5.32-3.16-1.72-.59-3.29-.89-4.7-.89-1.33,0-2.35.21-3.06.62-.71.41-1.06.96-1.06,1.65Z"/>
  </g>
  <g>
    <path class="cls-1" d="M98.73,59.98l-7.62-4.4,26.49-15.4,7.62,4.4-26.49,15.4M79.68,48.99l-7.62-4.4,26.49-15.4,7.62,4.4-26.49,15.4M98.48,16l-48.38,28.8,48.71,28.39,49.2-28.59-19.05-11h-11.39s-.04-6.6-.04-6.6l-19.05-11"/>
    <path class="cls-1" d="M113.42,92.38l.02-8.75,26.49-15.4-.02,8.75-26.49,15.4M151.33,48.51l-49.2,28.59-.16,56.91,11.35-6.6.06-21.89,26.49-15.4-.06,21.89,11.35-6.6.16-56.91"/>
    <polyline class="cls-1" points="57.99 55.1 46.57 48.5 46.4 105.41 94.83 133.91 94.87 120.77 57.87 98.87 57.99 55.1"/>
  </g>
</svg>