<?xml version="1.0" encoding="UTF-8"?>
<svg id="Layer_1" data-name="Layer 1" xmlns="http://www.w3.org/2000/svg" viewBox="0 0 900 900">
  <defs>
    <style>
      .cls-1 {
        fill: #434a4e;
      }
    </style>
  </defs>
  <path class="cls-1" d="M449.22,366.17l-42.51-24.55,147.9-85.95,42.51,24.55-147.9,85.95M342.9,304.79l-42.51-24.55,147.9-85.95,42.51,24.55-147.9,85.95M447.84,120.63l-270.1,160.75,271.92,158.46,274.63-159.6-106.32-61.39h-63.58s-.23-36.84-.23-36.84l-106.32-61.39"/>
  <path class="cls-1" d="M531.25,547.05l.14-48.85,147.9-85.95-.14,48.85-147.9,85.95M742.87,302.1l-274.63,159.6-.9,317.67,63.37-36.83.35-122.17,147.9-85.95-.35,122.17,63.37-36.83.9-317.67"/>
  <polyline class="cls-1" points="221.82 338.92 158.04 302.09 157.13 619.76 427.47 778.85 427.68 705.52 221.13 583.27 221.82 338.92"/>
</svg>